<mxfile host="app.diagrams.net" agent="Mozilla/5.0 (Windows NT 10.0; Win64; x64) AppleWebKit/537.36 (KHTML, like Gecko) Chrome/130.0.0.0 Safari/537.36" version="24.8.6">
  <diagram id="Lekrt1xAVYMUeo6LF6zA" name="Trang-2">
    <mxGraphModel dx="1050" dy="557" grid="1" gridSize="10" guides="1" tooltips="1" connect="1" arrows="1" fold="1" page="1" pageScale="1" pageWidth="827" pageHeight="1169" math="0" shadow="0">
      <root>
        <mxCell id="0" />
        <mxCell id="1" parent="0" />
        <mxCell id="E2iIJiAh7wiuM5oPirdv-3" value="" style="edgeStyle=orthogonalEdgeStyle;rounded=0;orthogonalLoop=1;jettySize=auto;html=1;" edge="1" parent="1" source="E2iIJiAh7wiuM5oPirdv-1" target="E2iIJiAh7wiuM5oPirdv-2">
          <mxGeometry relative="1" as="geometry" />
        </mxCell>
        <mxCell id="E2iIJiAh7wiuM5oPirdv-1" value="Star" style="ellipse;whiteSpace=wrap;html=1;" vertex="1" parent="1">
          <mxGeometry x="330" y="70" width="120" height="80" as="geometry" />
        </mxCell>
        <mxCell id="E2iIJiAh7wiuM5oPirdv-5" value="" style="edgeStyle=orthogonalEdgeStyle;rounded=0;orthogonalLoop=1;jettySize=auto;html=1;" edge="1" parent="1" source="E2iIJiAh7wiuM5oPirdv-2" target="E2iIJiAh7wiuM5oPirdv-4">
          <mxGeometry relative="1" as="geometry" />
        </mxCell>
        <mxCell id="E2iIJiAh7wiuM5oPirdv-2" value="Nhập 2 số ( a , b )" style="whiteSpace=wrap;html=1;" vertex="1" parent="1">
          <mxGeometry x="330" y="220" width="120" height="60" as="geometry" />
        </mxCell>
        <mxCell id="E2iIJiAh7wiuM5oPirdv-9" value="" style="edgeStyle=orthogonalEdgeStyle;rounded=0;orthogonalLoop=1;jettySize=auto;html=1;" edge="1" parent="1" source="E2iIJiAh7wiuM5oPirdv-4" target="E2iIJiAh7wiuM5oPirdv-8">
          <mxGeometry relative="1" as="geometry" />
        </mxCell>
        <mxCell id="E2iIJiAh7wiuM5oPirdv-13" value="" style="edgeStyle=orthogonalEdgeStyle;rounded=0;orthogonalLoop=1;jettySize=auto;html=1;" edge="1" parent="1" source="E2iIJiAh7wiuM5oPirdv-4" target="E2iIJiAh7wiuM5oPirdv-12">
          <mxGeometry relative="1" as="geometry" />
        </mxCell>
        <mxCell id="E2iIJiAh7wiuM5oPirdv-4" value="so sánh a với b" style="whiteSpace=wrap;html=1;" vertex="1" parent="1">
          <mxGeometry x="330" y="360" width="120" height="60" as="geometry" />
        </mxCell>
        <mxCell id="E2iIJiAh7wiuM5oPirdv-15" value="" style="edgeStyle=orthogonalEdgeStyle;rounded=0;orthogonalLoop=1;jettySize=auto;html=1;" edge="1" parent="1" source="E2iIJiAh7wiuM5oPirdv-8" target="E2iIJiAh7wiuM5oPirdv-14">
          <mxGeometry relative="1" as="geometry" />
        </mxCell>
        <mxCell id="E2iIJiAh7wiuM5oPirdv-8" value="a&amp;lt;b" style="whiteSpace=wrap;html=1;" vertex="1" parent="1">
          <mxGeometry x="220" y="540" width="120" height="60" as="geometry" />
        </mxCell>
        <mxCell id="E2iIJiAh7wiuM5oPirdv-17" value="" style="edgeStyle=orthogonalEdgeStyle;rounded=0;orthogonalLoop=1;jettySize=auto;html=1;" edge="1" parent="1" source="E2iIJiAh7wiuM5oPirdv-12" target="E2iIJiAh7wiuM5oPirdv-16">
          <mxGeometry relative="1" as="geometry" />
        </mxCell>
        <mxCell id="E2iIJiAh7wiuM5oPirdv-12" value="&amp;nbsp;a&amp;gt;=b" style="whiteSpace=wrap;html=1;" vertex="1" parent="1">
          <mxGeometry x="450" y="540" width="120" height="60" as="geometry" />
        </mxCell>
        <mxCell id="E2iIJiAh7wiuM5oPirdv-19" value="" style="edgeStyle=orthogonalEdgeStyle;rounded=0;orthogonalLoop=1;jettySize=auto;html=1;" edge="1" parent="1" source="E2iIJiAh7wiuM5oPirdv-14" target="E2iIJiAh7wiuM5oPirdv-18">
          <mxGeometry relative="1" as="geometry" />
        </mxCell>
        <mxCell id="E2iIJiAh7wiuM5oPirdv-14" value="in ra a nhỏ nhất" style="whiteSpace=wrap;html=1;" vertex="1" parent="1">
          <mxGeometry x="220" y="680" width="120" height="60" as="geometry" />
        </mxCell>
        <mxCell id="E2iIJiAh7wiuM5oPirdv-21" value="" style="edgeStyle=orthogonalEdgeStyle;rounded=0;orthogonalLoop=1;jettySize=auto;html=1;" edge="1" parent="1" source="E2iIJiAh7wiuM5oPirdv-16" target="E2iIJiAh7wiuM5oPirdv-20">
          <mxGeometry relative="1" as="geometry" />
        </mxCell>
        <mxCell id="E2iIJiAh7wiuM5oPirdv-16" value="&amp;nbsp; &amp;nbsp;in ra b nhỏ nhất&lt;span style=&quot;white-space: pre;&quot;&gt;&#x9;&lt;/span&gt;" style="whiteSpace=wrap;html=1;" vertex="1" parent="1">
          <mxGeometry x="450" y="680" width="120" height="60" as="geometry" />
        </mxCell>
        <mxCell id="E2iIJiAh7wiuM5oPirdv-18" value="" style="whiteSpace=wrap;html=1;" vertex="1" parent="1">
          <mxGeometry x="330" y="850" width="120" height="60" as="geometry" />
        </mxCell>
        <mxCell id="E2iIJiAh7wiuM5oPirdv-20" value="end" style="whiteSpace=wrap;html=1;" vertex="1" parent="1">
          <mxGeometry x="330" y="850" width="120" height="60" as="geometry" />
        </mxCell>
      </root>
    </mxGraphModel>
  </diagram>
</mxfile>
